<?xml version="1.0" encoding="iso-8859-1"?>
<!-- Uploaded to: SVG Repo, www.svgrepo.com, Generator: SVG Repo Mixer Tools -->
<svg fill="#000000" height="800px" width="800px" version="1.1" id="Layer_1" xmlns="http://www.w3.org/2000/svg" xmlns:xlink="http://www.w3.org/1999/xlink" 
	 viewBox="0 0 512 512" xml:space="preserve">
<g>
	<g>
		<path d="M510.366,444.46l-31.047-41.396V182.468c0-22.526-18.325-40.851-40.851-40.851h-67.954
			c1.697-7.96,2.593-16.164,2.593-24.511C373.106,52.534,320.573,0,256,0S138.894,52.534,138.894,117.106
			c0,8.347,0.895,16.551,2.593,24.511H73.532c-22.526,0-40.851,18.325-40.851,40.851v190.638c0,4.513,3.658,8.17,8.17,8.17
			s8.17-3.657,8.17-8.17V182.468c0-13.515,10.995-24.511,24.511-24.511h72.702c9.395,25.275,27.384,46.906,51.509,60.752
			l6.813,26.723c-3.411,0.982-5.909,4.119-5.909,7.846c0,4.513,3.658,8.17,8.17,8.17h1.821l2.727,10.694
			c3.143,12.328,15.57,21.987,28.294,21.987h32.681c12.724,0,25.151-9.657,28.294-21.987l2.727-10.694h1.821
			c4.512,0,8.17-3.657,8.17-8.17c0-3.727-2.498-6.864-5.909-7.846l6.813-26.723c24.125-13.845,42.115-35.476,51.509-60.752h72.702
			c13.516,0,24.511,10.996,24.511,24.511v215.149H40.851c-2.572,0-4.993,1.21-6.536,3.268L1.634,444.46
			C0.573,445.874,0,447.594,0,449.362v21.787C0,493.675,18.325,512,40.851,512h430.298C493.675,512,512,493.675,512,471.149v-21.787
			C512,447.594,511.427,445.874,510.366,444.46z M284.801,268.106c-1.292,5.067-7.231,9.682-12.46,9.682H239.66
			c-5.229,0-11.168-4.615-12.46-9.682l-1.697-6.658h60.997L284.801,268.106z M303.364,206.063c-2.025,1.082-3.503,2.965-4.07,5.191
			l-8.631,33.854h-69.327l-8.631-33.854c-0.568-2.226-2.045-4.108-4.07-5.191c-32.939-17.578-53.402-51.664-53.402-88.956
			C155.234,61.544,200.437,16.34,256,16.34c55.563,0,100.766,45.203,100.766,100.766
			C356.766,154.398,336.303,188.485,303.364,206.063z M44.936,413.957h422.128l20.426,27.234H24.511L44.936,413.957z
			 M495.66,471.149c0,13.515-10.995,24.511-24.511,24.511H40.851c-13.516,0-24.511-10.996-24.511-24.511v-13.617H247.83v13.617
			c0,4.513,3.658,8.17,8.17,8.17c4.512,0,8.17-3.657,8.17-8.17v-13.617H495.66V471.149z"/>
	</g>
</g>
<g>
	<g>
		<circle cx="288.681" cy="318.638" r="8.17"/>
	</g>
</g>
<g>
	<g>
		<circle cx="223.319" cy="318.638" r="8.17"/>
	</g>
</g>
<g>
	<g>
		<circle cx="256" cy="318.638" r="8.17"/>
	</g>
</g>
<g>
	<g>
		<path d="M298.622,126.625c-3.044-2.007-7.046-1.753-9.812,0.619l-13.749,11.783l-13.749-11.783c-3.06-2.623-7.574-2.623-10.634,0
			l-13.746,11.781l-13.744-11.781c-2.767-2.37-6.768-2.625-9.812-0.619c-3.043,2.004-4.39,5.781-3.304,9.26l27.234,87.149
			c1.066,3.411,4.225,5.733,7.799,5.733h21.787c3.573,0,6.732-2.323,7.799-5.733l27.234-87.149
			C303.013,132.408,301.665,128.63,298.622,126.625z M260.887,212.427h-9.774l-17.202-55.047c2.754,1.098,5.981,0.635,8.34-1.388
			l13.747-11.783l13.748,11.783c2.361,2.023,5.587,2.486,8.345,1.386L260.887,212.427z"/>
	</g>
</g>
</svg>